<svg xmlns="http://www.w3.org/2000/svg" viewBox="0 0 1200 630" role="img" aria-label="Sastra: compra y vende moda con respaldo">
  <title>Sastra</title>
  <rect width="1200" height="630" fill="#16192A"/>
  <path fill="#D69A3C" d="M104 336V340H88V336ZM129 336V340H113V336ZM154 336V340H138V336ZM179 336V340H163V336ZM204 336V340H188V336ZM229 336V340H213V336ZM254 336V340H238V336ZM279 336V340H263V336ZM304 336V340H288V336ZM329 336V340H313V336ZM354 336V340H338V336ZM379 336V340H363V336ZM404 336V340H388V336ZM429 336V340H413V336ZM454 336V340H438V336ZM479 336V340H463V336ZM504 336V340H488V336ZM529 336V340H513V336ZM554 336V340H538V336ZM579 336V340H563V336ZM604 336V340H588V336ZM629 336V340H613V336ZM654 336V340H638V336ZM679 336V340H663V336ZM704 336V340H688V336ZM729 336V340H713V336ZM754 336V340H738V336ZM779 336V340H763V336ZM804 336V340H788V336ZM829 336V340H813V336ZM854 336V340H838V336ZM879 336V340H863V336ZM904 336V340H888V336ZM929 336V340H913V336ZM954 336V340H938V336ZM979 336V340H963V336ZM1004 336V340H988V336ZM1029 336V340H1013V336ZM1054 336V340H1038V336ZM1079 336V340H1063V336ZM1104 336V340H1088V336Z"/>
  <path fill="#FFFFFF" d="M434.84 289.55V225.13H465.2Q472.31 225.13 476.79 227.6Q481.27 230.07 483.41 234.5Q485.55 238.92 485.55 244.76Q485.55 251.03 483.02 255.84Q480.49 260.64 475.54 263.06L487.85 289.55H474.65L463.87 265.62H447.04V289.55ZM234.39 289.55 256.64 225.13H272.11L294.45 289.55H281.35L276.78 275.73H251.45L246.9 289.55ZM497.95 289.55 520.2 225.13H535.66L558 289.55H544.9L540.34 275.73H515L510.46 289.55ZM330.84 290.67Q325.81 290.67 321.31 289.59Q316.8 288.51 313.37 286.11Q309.94 283.71 307.98 279.96Q306.02 276.21 306.02 270.87Q306.02 270.35 306.05 269.81Q306.08 269.28 306.09 268.97H318.21Q318.21 269.24 318.18 269.74Q318.14 270.24 318.14 270.63Q318.14 273.88 319.64 276.05Q321.13 278.22 324.01 279.31Q326.89 280.39 330.9 280.39Q333.51 280.39 335.53 280.04Q337.56 279.69 339.06 278.99Q340.57 278.3 341.55 277.31Q342.53 276.32 342.98 275.05Q343.44 273.78 343.44 272.24Q343.44 269.58 341.92 267.82Q340.41 266.05 337.84 264.84Q335.27 263.62 332.05 262.64Q328.83 261.65 325.42 260.61Q322 259.57 318.78 258.13Q315.56 256.69 312.99 254.63Q310.42 252.57 308.91 249.5Q307.39 246.42 307.39 242.07Q307.39 237.42 309.2 234Q311 230.57 314.26 228.36Q317.52 226.14 321.82 225.07Q326.13 224 331.13 224Q335.97 224 340.17 225.05Q344.38 226.09 347.55 228.33Q350.72 230.58 352.5 234.07Q354.29 237.56 354.29 242.45V243.81H342.35V242.74Q342.35 240.04 341.01 238.18Q339.67 236.31 337.17 235.28Q334.67 234.26 331.14 234.26Q327.59 234.26 325.03 235.03Q322.46 235.81 321.1 237.37Q319.73 238.92 319.73 241.27Q319.73 243.69 321.24 245.33Q322.75 246.96 325.32 248.11Q327.89 249.26 331.12 250.21Q334.34 251.16 337.75 252.22Q341.16 253.28 344.38 254.69Q347.6 256.09 350.17 258.18Q352.74 260.27 354.26 263.31Q355.77 266.36 355.77 270.63Q355.77 277.81 352.58 282.23Q349.38 286.65 343.75 288.66Q338.12 290.67 330.84 290.67ZM198.03 290.67Q193.01 290.67 188.5 289.59Q184 288.51 180.56 286.11Q177.13 283.71 175.17 279.96Q173.21 276.21 173.21 270.87Q173.21 270.35 173.24 269.81Q173.27 269.28 173.28 268.97H185.4Q185.4 269.24 185.37 269.74Q185.33 270.24 185.33 270.63Q185.33 273.88 186.83 276.05Q188.32 278.22 191.2 279.31Q194.08 280.39 198.09 280.39Q200.7 280.39 202.72 280.04Q204.75 279.69 206.25 278.99Q207.76 278.3 208.74 277.31Q209.72 276.32 210.17 275.05Q210.63 273.78 210.63 272.24Q210.63 269.58 209.11 267.82Q207.6 266.05 205.03 264.84Q202.46 263.62 199.24 262.64Q196.02 261.65 192.61 260.61Q189.2 259.57 185.97 258.13Q182.75 256.69 180.18 254.63Q177.61 252.57 176.1 249.5Q174.59 246.42 174.59 242.07Q174.59 237.42 176.39 234Q178.19 230.57 181.45 228.36Q184.71 226.14 189.02 225.07Q193.32 224 198.33 224Q203.16 224 207.37 225.05Q211.57 226.09 214.74 228.33Q217.91 230.58 219.69 234.07Q221.48 237.56 221.48 242.45V243.81H209.54V242.74Q209.54 240.04 208.2 238.18Q206.86 236.31 204.36 235.28Q201.86 234.26 198.33 234.26Q194.78 234.26 192.22 235.03Q189.66 235.81 188.29 237.37Q186.92 238.92 186.92 241.27Q186.92 243.69 188.43 245.33Q189.94 246.96 192.51 248.11Q195.09 249.26 198.31 250.21Q201.53 251.16 204.94 252.22Q208.35 253.28 211.57 254.69Q214.79 256.09 217.36 258.18Q219.94 260.27 221.45 263.31Q222.96 266.36 222.96 270.63Q222.96 277.81 219.77 282.23Q216.57 286.65 210.94 288.66Q205.31 290.67 198.03 290.67ZM387.69 289.55V235.62H368.89V225.13H418.74V235.62H399.89V289.55ZM106.31 280.46Q108.8 283.42 112.57 284.32Q116.34 285.21 119.9 283.68Q123.46 282.14 125.4 278.78Q127.34 275.43 126.89 271.58Q126.44 267.73 123.78 264.91Q121.12 262.09 117.3 261.41L119.86 246.91Q128.48 248.43 134.49 254.8Q140.5 261.17 141.52 269.87Q142.54 278.57 138.16 286.15Q133.78 293.74 125.74 297.2Q117.7 300.67 109.17 298.65Q100.65 296.63 95.02 289.92ZM124.23 234.22Q121.74 231.25 117.97 230.35Q114.19 229.46 110.64 231Q107.08 232.53 105.14 235.89Q103.2 239.25 103.65 243.1Q104.1 246.95 106.76 249.77Q109.42 252.59 113.24 253.26L110.68 267.77Q102.05 266.25 96.04 259.88Q90.03 253.51 89.02 244.81Q88 236.11 92.38 228.52Q96.76 220.94 104.8 217.47Q112.84 214 121.36 216.02Q129.89 218.04 135.52 224.75ZM447.04 255.43H463.94Q468.54 255.43 470.86 252.68Q473.18 249.92 473.18 245.07Q473.18 241.9 472.16 239.78Q471.13 237.65 469.08 236.56Q467.02 235.47 463.8 235.47H447.04ZM254.7 265.51H273.47L267.77 247.54Q267.47 246.69 267.04 245.34Q266.61 243.98 266.14 242.37Q265.66 240.75 265.2 239.09Q264.74 237.44 264.35 236.11H263.84Q263.38 237.84 262.73 240.08Q262.07 242.32 261.45 244.34Q260.83 246.36 260.42 247.54ZM518.25 265.51H537.02L531.32 247.54Q531.02 246.69 530.59 245.34Q530.16 243.98 529.69 242.37Q529.22 240.75 528.76 239.09Q528.29 237.44 527.9 236.11H527.4Q526.94 237.84 526.28 240.08Q525.63 242.32 525 244.34Q524.38 246.36 523.98 247.54Z"/>
  <path fill="#D69A3C" d="M631.55 408.82V405.84Q630.92 407.15 629.64 408.02Q627.93 409.16 625.56 409.16Q623.21 409.16 621.45 408.04Q619.7 406.93 618.74 404.92Q617.78 402.92 617.78 400.22Q617.78 397.49 618.76 395.45Q619.75 393.41 621.52 392.28Q623.3 391.16 625.68 391.16Q628.14 391.16 629.76 392.34Q630.82 393.11 631.4 394.27V384.34H634.91V408.82ZM421.19 408.82V405.84Q420.56 407.15 419.28 408.02Q417.57 409.16 415.2 409.16Q412.85 409.16 411.1 408.04Q409.35 406.93 408.38 404.92Q407.42 402.92 407.42 400.22Q407.42 397.49 408.4 395.45Q409.39 393.41 411.16 392.28Q412.94 391.16 415.32 391.16Q417.78 391.16 419.4 392.34Q420.46 393.11 421.04 394.27V384.34H424.55V408.82ZM321.94 408.82V405.84Q321.32 407.15 320.03 408.02Q318.33 409.16 315.96 409.16Q313.6 409.16 311.85 408.04Q310.1 406.93 309.14 404.92Q308.17 402.92 308.17 400.22Q308.17 397.49 309.16 395.45Q310.14 393.41 311.92 392.28Q313.69 391.16 316.07 391.16Q318.53 391.16 320.16 392.34Q321.21 393.11 321.8 394.27V384.34H325.31V408.82ZM175.71 409.14Q173.25 409.14 171.64 407.96Q170.56 407.17 169.99 405.96V415.79H166.47V391.48H169.84V394.44Q170.48 393.11 171.8 392.27Q173.56 391.14 175.96 391.14Q178.28 391.14 180 392.26Q181.72 393.37 182.66 395.38Q183.61 397.38 183.61 400.08Q183.61 402.81 182.62 404.85Q181.64 406.89 179.87 408.02Q178.1 409.14 175.71 409.14ZM579.97 409.14Q577.51 409.14 575.9 407.96Q574.82 407.17 574.25 405.96V415.79H570.73V391.48H574.1V394.44Q574.74 393.11 576.06 392.27Q577.82 391.14 580.22 391.14Q582.54 391.14 584.26 392.26Q585.98 393.37 586.92 395.38Q587.87 397.38 587.87 400.08Q587.87 402.81 586.88 404.85Q585.9 406.89 584.13 408.02Q582.36 409.14 579.97 409.14ZM647.57 409.16Q644.92 409.16 642.91 407.99Q640.9 406.81 639.78 404.76Q638.66 402.7 638.66 400.08Q638.66 397.44 639.79 395.44Q640.92 393.43 642.92 392.28Q644.92 391.14 647.57 391.14Q650.26 391.14 652.26 392.28Q654.26 393.43 655.37 395.44Q656.48 397.44 656.48 400.08Q656.48 402.7 655.36 404.76Q654.25 406.81 652.25 407.99Q650.25 409.16 647.57 409.16ZM122 409.16Q119.35 409.16 117.34 407.99Q115.32 406.81 114.21 404.76Q113.09 402.7 113.09 400.08Q113.09 397.44 114.22 395.44Q115.35 393.43 117.35 392.28Q119.35 391.14 122 391.14Q124.69 391.14 126.69 392.28Q128.69 393.43 129.8 395.44Q130.91 397.44 130.91 400.08Q130.91 402.7 129.79 404.76Q128.68 406.81 126.67 407.99Q124.67 409.16 122 409.16ZM481.35 409.16Q478.69 409.16 476.68 407.99Q474.67 406.81 473.55 404.76Q472.44 402.7 472.44 400.08Q472.44 397.44 473.57 395.44Q474.69 393.43 476.69 392.28Q478.69 391.14 481.35 391.14Q484.03 391.14 486.03 392.28Q488.03 393.43 489.14 395.44Q490.25 397.44 490.25 400.08Q490.25 402.7 489.14 404.76Q488.02 406.81 486.02 407.99Q484.02 409.16 481.35 409.16ZM396.01 409.16Q393.35 409.16 391.34 407.99Q389.33 406.81 388.21 404.76Q387.1 402.7 387.1 400.08Q387.1 397.44 388.23 395.44Q389.35 393.43 391.35 392.28Q393.35 391.14 396.01 391.14Q398.69 391.14 400.69 392.28Q402.69 393.43 403.8 395.44Q404.91 397.44 404.91 400.08Q404.91 402.7 403.8 404.76Q402.68 406.81 400.68 407.99Q398.68 409.16 396.01 409.16ZM134.68 408.82V391.48H138.05V394.74Q138.9 393.22 140.34 392.27Q142.06 391.14 144.2 391.14Q146.79 391.14 148.33 392.64Q149.18 393.46 149.56 394.56Q150.41 393.16 151.82 392.27Q153.61 391.14 155.81 391.14Q158.43 391.14 159.99 392.65Q161.56 394.17 161.56 396.69V408.82H158.05V397.49Q158.05 395.73 157.23 394.91Q156.41 394.09 154.88 394.09Q153.47 394.09 152.33 394.75Q151.19 395.41 150.54 396.6Q149.88 397.78 149.88 399.37V408.82H146.37V397.49Q146.37 395.73 145.54 394.91Q144.72 394.09 143.19 394.09Q141.79 394.09 140.65 394.75Q139.51 395.41 138.85 396.6Q138.2 397.78 138.2 399.37V408.82ZM356.67 408.82V391.48H360.03V394.74Q360.88 393.22 362.33 392.27Q364.05 391.14 366.19 391.14Q368.77 391.14 370.32 392.64Q371.17 393.46 371.55 394.56Q372.39 393.16 373.81 392.27Q375.59 391.14 377.79 391.14Q380.41 391.14 381.98 392.65Q383.55 394.17 383.55 396.69V408.82H380.04V397.49Q380.04 395.73 379.22 394.91Q378.39 394.09 376.86 394.09Q375.46 394.09 374.32 394.75Q373.18 395.41 372.52 396.6Q371.87 397.78 371.87 399.37V408.82H368.35V397.49Q368.35 395.73 367.53 394.91Q366.71 394.09 365.18 394.09Q363.77 394.09 362.63 394.75Q361.5 395.41 360.84 396.6Q360.18 397.78 360.18 399.37V408.82ZM337.88 409.16Q335.26 409.16 333.28 408Q331.29 406.84 330.18 404.8Q329.06 402.76 329.06 400.1Q329.06 397.44 330.16 395.42Q331.27 393.4 333.26 392.27Q335.26 391.14 337.87 391.14Q340.37 391.14 342.22 392.21Q344.07 393.27 345.07 395.19Q346.08 397.1 346.08 399.7Q346.08 400.1 346.06 400.46Q346.04 400.82 345.97 401.2H332.66Q332.88 403.38 334.03 404.73Q335.45 406.39 337.96 406.39Q339.48 406.39 340.61 405.77Q341.74 405.15 342.27 403.94H345.6Q344.75 406.36 342.73 407.76Q340.72 409.16 337.88 409.16ZM276.75 409.16Q274.13 409.16 272.14 408Q270.16 406.84 269.04 404.8Q267.93 402.76 267.93 400.1Q267.93 397.44 269.03 395.42Q270.14 393.4 272.13 392.27Q274.13 391.14 276.73 391.14Q279.24 391.14 281.09 392.21Q282.93 393.27 283.94 395.19Q284.95 397.1 284.95 399.7Q284.95 400.1 284.93 400.46Q284.91 400.82 284.84 401.2H271.53Q271.75 403.38 272.9 404.73Q274.32 406.39 276.82 406.39Q278.34 406.39 279.48 405.77Q280.61 405.15 281.14 403.94H284.46Q283.61 406.36 281.6 407.76Q279.59 409.16 276.75 409.16ZM542.22 409.16Q539.6 409.16 537.62 408Q535.63 406.84 534.52 404.8Q533.4 402.76 533.4 400.1Q533.4 397.44 534.51 395.42Q535.61 393.4 537.6 392.27Q539.6 391.14 542.21 391.14Q544.71 391.14 546.56 392.21Q548.41 393.27 549.41 395.19Q550.42 397.1 550.42 399.7Q550.42 400.1 550.4 400.46Q550.38 400.82 550.31 401.2H537Q537.22 403.38 538.37 404.73Q539.79 406.39 542.3 406.39Q543.82 406.39 544.95 405.77Q546.08 405.15 546.61 403.94H549.94Q549.09 406.36 547.07 407.76Q545.06 409.16 542.22 409.16ZM99.82 409.16Q97.26 409.16 95.09 408.23Q92.93 407.29 91.34 405.6Q89.75 403.91 88.87 401.61Q88 399.3 88 396.55Q88 393.79 88.87 391.5Q89.73 389.21 91.31 387.53Q92.9 385.85 95.06 384.92Q97.23 384 99.8 384Q102.64 384 104.91 385.14Q107.19 386.28 108.64 388.35Q110.1 390.41 110.44 393.18H106.88Q106.46 390.29 104.57 388.67Q102.68 387.06 99.83 387.06Q97.4 387.06 95.55 388.24Q93.71 389.42 92.69 391.54Q91.67 393.67 91.67 396.53Q91.67 399.41 92.7 401.56Q93.72 403.71 95.57 404.9Q97.42 406.1 99.83 406.1Q102.68 406.1 104.59 404.48Q106.51 402.86 106.93 399.99H110.51Q110.13 402.76 108.67 404.83Q107.21 406.89 104.94 408.03Q102.68 409.16 99.82 409.16ZM211.34 408.82Q211.18 408.19 211.12 407.4Q211.08 406.86 211.06 406.13Q210.42 407.43 209.18 408.2Q207.61 409.16 205.36 409.16Q202.7 409.16 201.14 407.85Q199.58 406.54 199.58 404.3Q199.58 401.97 201.23 400.64Q202.87 399.31 205.96 398.82L210.9 398.03V397.21Q210.9 395.55 210.07 394.73Q209.23 393.91 207.44 393.91Q205.7 393.91 204.66 394.59Q203.62 395.27 203.45 396.52H200.09Q200.31 394.06 202.3 392.6Q204.28 391.14 207.57 391.14Q210.97 391.14 212.67 392.72Q214.37 394.29 214.37 397.37V405.48Q214.37 406.26 214.47 407.08Q214.58 407.9 214.79 408.82ZM602.44 408.82Q602.28 408.19 602.22 407.4Q602.18 406.86 602.16 406.13Q601.52 407.43 600.28 408.2Q598.71 409.16 596.46 409.16Q593.81 409.16 592.24 407.85Q590.68 406.54 590.68 404.3Q590.68 401.97 592.33 400.64Q593.98 399.31 597.06 398.82L602 398.03V397.21Q602 395.55 601.17 394.73Q600.33 393.91 598.54 393.91Q596.8 393.91 595.76 394.59Q594.72 395.27 594.55 396.52H591.19Q591.42 394.06 593.4 392.6Q595.38 391.14 598.67 391.14Q602.07 391.14 603.77 392.72Q605.47 394.29 605.47 397.37V405.48Q605.47 406.26 605.58 407.08Q605.68 407.9 605.89 408.82ZM440.4 408.82Q440.24 408.19 440.18 407.4Q440.13 406.86 440.12 406.13Q439.48 407.43 438.23 408.2Q436.67 409.16 434.41 409.16Q431.76 409.16 430.2 407.85Q428.63 406.54 428.63 404.3Q428.63 401.97 430.28 400.64Q431.93 399.31 435.02 398.82L439.96 398.03V397.21Q439.96 395.55 439.12 394.73Q438.29 393.91 436.5 393.91Q434.75 393.91 433.72 394.59Q432.68 395.27 432.51 396.52H429.14Q429.37 394.06 431.35 392.6Q433.34 391.14 436.62 391.14Q440.02 391.14 441.72 392.72Q443.42 394.29 443.42 397.37V405.48Q443.42 406.26 443.53 407.08Q443.64 407.9 443.84 408.82ZM288.7 408.82V391.48H292.07V394.74Q292.92 393.22 294.41 392.27Q296.17 391.14 298.52 391.14Q301.29 391.14 302.9 392.71Q304.51 394.28 304.51 396.86V408.82H301V397.67Q301 395.88 300.1 394.98Q299.2 394.09 297.44 394.09Q295.91 394.09 294.73 394.77Q293.54 395.45 292.88 396.65Q292.22 397.85 292.22 399.46V408.82ZM494.03 408.82V391.48H497.39V394.74Q498.25 393.22 499.73 392.27Q501.5 391.14 503.84 391.14Q506.62 391.14 508.23 392.71Q509.84 394.28 509.84 396.86V408.82H506.32V397.67Q506.32 395.88 505.42 394.98Q504.52 394.09 502.77 394.09Q501.24 394.09 500.05 394.77Q498.87 395.45 498.2 396.65Q497.54 397.85 497.54 399.46V408.82ZM227.43 415.79 230.97 407.71 224.03 391.48H227.86L232.83 403.81L237.6 391.48H241.27L231.06 415.79ZM560.43 409.16Q557.03 409.16 555.01 407.66Q553 406.17 552.75 403.46H556.01Q556.23 404.96 557.38 405.74Q558.53 406.53 560.48 406.53Q562.21 406.53 563.13 405.92Q564.06 405.32 564.06 404.2Q564.06 403.39 563.53 402.83Q563 402.27 561.47 401.9L558.68 401.23Q556.07 400.6 554.79 399.32Q553.51 398.03 553.51 396.16Q553.51 393.83 555.26 392.48Q557.02 391.14 560.08 391.14Q563.1 391.14 564.96 392.51Q566.82 393.87 567.05 396.3H563.78Q563.58 395.07 562.61 394.42Q561.63 393.77 559.98 393.77Q558.41 393.77 557.58 394.32Q556.75 394.87 556.75 395.88Q556.75 396.67 557.37 397.22Q557.99 397.77 559.46 398.16L562.31 398.87Q564.79 399.48 566.06 400.86Q567.32 402.24 567.32 404.15Q567.32 406.52 565.5 407.84Q563.68 409.16 560.43 409.16ZM462.4 409.16Q459.9 409.16 457.98 407.99Q456.05 406.83 454.94 404.77Q453.84 402.72 453.84 400.1Q453.84 397.49 454.94 395.47Q456.05 393.45 457.98 392.3Q459.9 391.14 462.37 391.14Q464.43 391.14 466.06 391.92Q467.7 392.69 468.76 394.1Q469.82 395.5 470.11 397.38H466.79Q466.44 395.85 465.3 394.94Q464.16 394.02 462.44 394.02Q460.92 394.02 459.81 394.77Q458.69 395.51 458.08 396.89Q457.47 398.26 457.47 400.1Q457.47 401.95 458.08 403.35Q458.69 404.74 459.82 405.51Q460.95 406.28 462.46 406.28Q464.14 406.28 465.3 405.37Q466.47 404.47 466.82 402.94H470.14Q469.82 404.8 468.74 406.2Q467.66 407.61 466.03 408.38Q464.4 409.16 462.4 409.16ZM256.08 408.82 249.02 391.48H252.8L257.73 404.92L262.62 391.48H266.26L259.2 408.82ZM122 406.28Q123.58 406.28 124.76 405.5Q125.94 404.72 126.61 403.32Q127.28 401.92 127.28 400.05Q127.28 397.27 125.81 395.64Q124.35 394.02 122 394.02Q119.68 394.02 118.2 395.65Q116.72 397.28 116.72 400.05Q116.72 401.92 117.39 403.32Q118.06 404.72 119.25 405.5Q120.45 406.28 122 406.28ZM396.01 406.28Q397.58 406.28 398.77 405.5Q399.95 404.72 400.62 403.32Q401.29 401.92 401.29 400.05Q401.29 397.27 399.82 395.64Q398.35 394.02 396.01 394.02Q393.68 394.02 392.2 395.65Q390.72 397.28 390.72 400.05Q390.72 401.92 391.39 403.32Q392.06 404.72 393.26 405.5Q394.45 406.28 396.01 406.28ZM481.35 406.28Q482.92 406.28 484.11 405.5Q485.29 404.72 485.96 403.32Q486.63 401.92 486.63 400.05Q486.63 397.27 485.16 395.64Q483.69 394.02 481.35 394.02Q479.02 394.02 477.54 395.65Q476.06 397.28 476.06 400.05Q476.06 401.92 476.73 403.32Q477.4 404.72 478.6 405.5Q479.79 406.28 481.35 406.28ZM647.57 406.28Q649.15 406.28 650.33 405.5Q651.52 404.72 652.18 403.32Q652.85 401.92 652.85 400.05Q652.85 397.27 651.39 395.64Q649.92 394.02 647.57 394.02Q645.25 394.02 643.77 395.65Q642.29 397.28 642.29 400.05Q642.29 401.92 642.96 403.32Q643.63 404.72 644.82 405.5Q646.02 406.28 647.57 406.28ZM416.09 406.21Q418.43 406.21 419.79 404.6Q421.15 402.98 421.15 400.13Q421.15 397.32 419.78 395.71Q418.4 394.11 416.07 394.11Q413.75 394.11 412.4 395.72Q411.05 397.33 411.05 400.21Q411.05 403.04 412.4 404.63Q413.75 406.21 416.09 406.21ZM316.84 406.21Q319.19 406.21 320.55 404.6Q321.91 402.98 321.91 400.13Q321.91 397.32 320.53 395.71Q319.15 394.11 316.82 394.11Q314.51 394.11 313.15 395.72Q311.8 397.33 311.8 400.21Q311.8 403.04 313.15 404.63Q314.51 406.21 316.84 406.21ZM626.45 406.21Q628.79 406.21 630.15 404.6Q631.51 402.98 631.51 400.13Q631.51 397.32 630.14 395.71Q628.76 394.11 626.42 394.11Q624.11 394.11 622.76 395.72Q621.4 397.33 621.4 400.21Q621.4 403.04 622.76 404.63Q624.11 406.21 626.45 406.21ZM579.22 406.19Q581.54 406.19 582.89 404.57Q584.24 402.95 584.24 400.09Q584.24 397.26 582.89 395.67Q581.53 394.09 579.2 394.09Q576.89 394.09 575.51 395.7Q574.13 397.32 574.13 400.17Q574.13 402.98 575.51 404.59Q576.89 406.19 579.22 406.19ZM174.96 406.19Q177.28 406.19 178.63 404.57Q179.98 402.95 179.98 400.09Q179.98 397.26 178.63 395.67Q177.27 394.09 174.94 394.09Q172.63 394.09 171.25 395.7Q169.87 397.32 169.87 400.17Q169.87 402.98 171.25 404.59Q172.63 406.19 174.96 406.19ZM610.41 408.82V384.34H613.92V408.82ZM187.45 408.82V391.48H190.82V394.78Q191.45 393.21 192.64 392.3Q194.15 391.14 196.2 391.14Q196.98 391.14 197.29 391.28V394.61Q197.12 394.54 196.81 394.52Q196.51 394.51 196.06 394.51Q193.52 394.51 192.24 395.83Q190.96 397.15 190.96 399.78V408.82ZM521.6 408.82V391.48H524.97V394.78Q525.6 393.21 526.79 392.3Q528.3 391.14 530.35 391.14Q531.13 391.14 531.44 391.28V394.61Q531.27 394.54 530.96 394.52Q530.66 394.51 530.22 394.51Q527.68 394.51 526.4 395.83Q525.12 397.15 525.12 399.78V408.82ZM537.06 398.56H546.9Q546.7 396.53 545.69 395.36Q544.44 393.91 542.18 393.91Q539.79 393.91 538.37 395.55Q537.35 396.73 537.06 398.56ZM332.72 398.56H342.56Q342.36 396.53 341.35 395.36Q340.1 393.91 337.84 393.91Q335.45 393.91 334.03 395.55Q333.01 396.73 332.72 398.56ZM271.59 398.56H281.42Q281.23 396.53 280.22 395.36Q278.97 393.91 276.71 393.91Q274.32 393.91 272.9 395.55Q271.88 396.73 271.59 398.56ZM439.96 402.92V400.51L435.57 401.19Q433.85 401.46 432.98 402.12Q432.1 402.78 432.1 404Q432.1 405.17 432.91 405.77Q433.71 406.37 435.23 406.37Q437.28 406.37 438.62 405.39Q439.96 404.41 439.96 402.92ZM210.9 402.92V400.51L206.51 401.19Q204.79 401.46 203.92 402.12Q203.04 402.78 203.04 404Q203.04 405.17 203.85 405.77Q204.65 406.37 206.17 406.37Q208.22 406.37 209.56 405.39Q210.9 404.41 210.9 402.92ZM602 402.92V400.51L597.61 401.19Q595.89 401.46 595.02 402.12Q594.15 402.78 594.15 404Q594.15 405.17 594.95 405.77Q595.76 406.37 597.27 406.37Q599.33 406.37 600.66 405.39Q602 404.41 602 402.92Z"/>
</svg>
