<svg xmlns="http://www.w3.org/2000/svg" viewBox="0 0 532 107" role="img" aria-label="Sendik">
  <title>Sendik — logotipo horizontal</title>
  <g transform="translate(-28.5,-6.5)"><g fill="none" stroke-width="19" stroke-linecap="butt"><path d="M82 38 A22 22 0 1 0 54.68 59.35" stroke="#14162B"/><path d="M65.32 60.65 A22 22 0 1 1 38 82" stroke="#14162B"/></g></g><g transform="translate(116.5,88.5)"><path d="M33.20 1.20Q27.50 1.20 22.30 -0.05Q17.10 -1.30 13.10 -3.95Q9.10 -6.60 6.80 -10.55Q4.50 -14.50 4.50 -19.90Q4.50 -20.50 4.55 -21.10Q4.60 -21.70 4.60 -22.00H17.70Q17.70 -21.80 17.65 -21.25Q17.60 -20.70 17.60 -20.30Q17.60 -17.00 19.50 -14.65Q21.40 -12.30 25.00 -11.05Q28.60 -9.80 33.50 -9.80Q36.80 -9.80 39.35 -10.20Q41.90 -10.60 43.75 -11.35Q45.60 -12.10 46.80 -13.15Q48.00 -14.20 48.55 -15.50Q49.10 -16.80 49.10 -18.30Q49.10 -21.20 47.30 -23.10Q45.50 -25.00 42.45 -26.30Q39.40 -27.60 35.55 -28.65Q31.70 -29.70 27.65 -30.80Q23.60 -31.90 19.75 -33.45Q15.90 -35.00 12.85 -37.20Q9.80 -39.40 8.00 -42.75Q6.20 -46.10 6.20 -50.80Q6.20 -55.60 8.25 -59.20Q10.30 -62.80 14.05 -65.15Q17.80 -67.50 22.80 -68.65Q27.80 -69.80 33.70 -69.80Q39.20 -69.80 44.05 -68.65Q48.90 -67.50 52.60 -65.05Q56.30 -62.60 58.40 -58.85Q60.50 -55.10 60.50 -49.90V-48.70H47.60V-49.70Q47.60 -52.60 45.85 -54.60Q44.10 -56.60 40.95 -57.70Q37.80 -58.80 33.60 -58.80Q29.10 -58.80 25.90 -57.95Q22.70 -57.10 21.00 -55.45Q19.30 -53.80 19.30 -51.40Q19.30 -48.90 21.10 -47.20Q22.90 -45.50 25.95 -44.30Q29.00 -43.10 32.85 -42.10Q36.70 -41.10 40.75 -39.95Q44.80 -38.80 48.65 -37.30Q52.50 -35.80 55.55 -33.55Q58.60 -31.30 60.40 -28.00Q62.20 -24.70 62.20 -20.10Q62.20 -12.40 58.45 -7.70Q54.70 -3.00 48.15 -0.90Q41.60 1.20 33.20 1.20ZM82.30 0.00V-68.60H135.80V-57.50H95.30V-40.60H131.40V-29.50H95.30V-11.10H136.40V0.00ZM157.50 0.00V-68.60H169.90L199.20 -28.10Q199.70 -27.50 200.40 -26.45Q201.10 -25.40 201.70 -24.40Q202.30 -23.40 202.50 -22.80H203.00Q203.00 -24.20 203.00 -25.50Q203.00 -26.80 203.00 -28.10V-68.60H215.50V0.00H203.20L173.80 -40.80Q173.00 -42.00 171.95 -43.75Q170.90 -45.50 170.50 -46.20H170.00Q170.00 -44.90 170.00 -43.55Q170.00 -42.20 170.00 -40.80V0.00ZM238.70 0.00V-68.60H266.20Q276.60 -68.60 284.00 -64.90Q291.40 -61.20 295.40 -53.65Q299.40 -46.10 299.40 -34.30Q299.40 -22.60 295.40 -15.00Q291.40 -7.40 284.00 -3.70Q276.60 0.00 266.20 0.00ZM251.70 -11.10H266.20Q271.00 -11.10 274.70 -12.50Q278.40 -13.90 280.90 -16.65Q283.40 -19.40 284.70 -23.55Q286.00 -27.70 286.00 -33.20V-35.30Q286.00 -40.90 284.70 -45.05Q283.40 -49.20 280.90 -51.95Q278.40 -54.70 274.70 -56.10Q271.00 -57.50 266.20 -57.50H251.70ZM319.50 0.00V-68.60H332.50V0.00ZM355.70 0.00V-68.60H368.70V-36.80L399.10 -68.60H415.00L388.40 -40.80L415.50 0.00H400.10L379.60 -31.70L368.70 -22.10V0.00Z" fill="#14162B"/></g>
</svg>
